<svg xmlns="http://www.w3.org/2000/svg" viewBox="0 0 100 120">
  <!-- Outer flame/leaf body -->
  <path d="M50 5
    C62 10, 82 28, 82 52
    C82 74, 68 92, 54 98
    L60 104 C64 107, 69 106, 73 103
    C69 108, 63 111, 56 111
    L50 111
    L44 111 C37 111, 31 108, 27 103
    C31 106, 36 107, 40 104
    L46 98
    C32 92, 18 74, 18 52
    C18 28, 38 10, 50 5Z"
    fill="#1B5E20"/>

  <!-- Inner white left swoosh -->
  <path d="M44 22 C34 36, 32 54, 38 67 C41 73, 46 77, 50 78"
    stroke="white" stroke-width="5" fill="none"
    stroke-linecap="round" stroke-linejoin="round" opacity="0.85"/>

  <!-- Inner white right swoosh -->
  <path d="M56 22 C66 36, 68 54, 62 67 C59 73, 54 77, 50 78"
    stroke="white" stroke-width="5" fill="none"
    stroke-linecap="round" stroke-linejoin="round" opacity="0.85"/>

  <!-- Center connecting arc -->
  <path d="M38 68 C42 80, 58 80, 62 68"
    stroke="white" stroke-width="4" fill="none"
    stroke-linecap="round" opacity="0.7"/>

  <!-- Orange accent dot -->
  <circle cx="50" cy="96" r="4" fill="#F59E0B"/>
</svg>
